{
  "source": "C:\\Users\\Peter\\Desktop\\stuff\\MIUN\\quantitative_research\\video_compression\\videos\\HEVC_CLASS_B\\Kimono_1920x1080_24.y4m",
  "output": "C:\\Users\\Peter\\Desktop\\stuff\\MIUN\\quantitative_research\\video_compression\\compressed_videos\\HEVC_CLASS_B\\h264\\8\\Kimono_1920x1080_24_h264.mp4",
  "codec": "h264",
  "ok": "Input #0, yuv4mpegpipe, from 'C:\\Users\\Peter\\Desktop\\stuff\\MIUN\\quantitative_research\\video_compression\\videos\\HEVC_CLASS_B\\Kimono_1920x1080_24.y4m':\n  Duration: 00:00:10.00, start: 0.000000, bitrate: 597198 kb/s\n  Stream #0:0: Video: rawvideo (I420 / 0x30323449), yuv420p(progressive), 1920x1080, 24 fps, 24 tbr, 24 tbn\n[out#0/mp4 @ 0000028ff4efa140] Codec AVOption b:a (set bitrate (in bits/s)) has not been used for any stream. The most likely reason is either wrong type (e.g. a video option with no video streams) or that it is a private option of some decoder which was not actually used for any stream.\nStream mapping:\n  Stream #0:0 -> #0:0 (rawvideo (native) -> h264 (libx264))\nPress [q] to stop, [?] for help\n[libx264 @ 0000028ff4efc900] using cpu capabilities: MMX2 SSE2Fast SSSE3 SSE4.2 AVX FMA3 BMI2 AVX2\n[libx264 @ 0000028ff4efc900] profile High, level 5.0, 4:2:0, 8-bit\n[libx264 @ 0000028ff4efc900] 264 - core 165 r3222 b35605a - H.264/MPEG-4 AVC codec - Copyleft 2003-2025 - http://www.videolan.org/x264.html - options: cabac=1 ref=5 deblock=1:0:0 analyse=0x3:0x113 me=hex subme=8 psy=1 psy_rd=1.00:0.00 mixed_ref=1 me_range=16 chroma_me=1 trellis=2 8x8dct=1 cqm=0 deadzone=21,11 fast_pskip=1 chroma_qp_offset=-2 threads=18 lookahead_threads=3 sliced_threads=0 nr=0 decimate=1 interlaced=0 bluray_compat=0 constrained_intra=0 bframes=3 b_pyramid=2 b_adapt=1 b_bias=0 direct=3 weightb=1 open_gop=0 weightp=2 keyint=250 keyint_min=24 scenecut=40 intra_refresh=0 rc_lookahead=50 rc=cbr mbtree=1 bitrate=8000 ratetol=1.0 qcomp=0.60 qpmin=0 qpmax=69 qpstep=4 vbv_maxrate=8000 vbv_bufsize=8000 nal_hrd=none filler=0 ip_ratio=1.40 aq=1:1.00\nOutput #0, mp4, to 'C:\\Users\\Peter\\Desktop\\stuff\\MIUN\\quantitative_research\\video_compression\\compressed_videos\\HEVC_CLASS_B\\h264\\8\\Kimono_1920x1080_24_h264.mp4':\n  Metadata:\n    encoder         : Lavf62.3.100\n  Stream #0:0: Video: h264 (avc1 / 0x31637661), yuv420p(tv, progressive), 1920x1080, q=2-31, 8000 kb/s, 24 fps, 12288 tbn\n    Metadata:\n      encoder         : Lavc62.11.100 libx264\n    Side data:\n      cpb: bitrate max/min/avg: 8000000/0/8000000 buffer size: 8000000 vbv_delay: N/A\nframe=    0 fps=0.0 q=0.0 size=       0KiB time=N/A bitrate=N/A speed=N/A elapsed=0:00:00.52    \nframe=    1 fps=1.0 q=30.0 size=       0KiB time=-00:00:00.04 bitrate=N/A speed=N/A elapsed=0:00:01.02    \nframe=   15 fps=9.7 q=27.0 size=     512KiB time=00:00:00.50 bitrate=8389.4kbits/s speed=0.322x elapsed=0:00:01.55    \nframe=   29 fps= 14 q=26.0 size=     768KiB time=00:00:01.12 bitrate=5592.7kbits/s speed=0.54x elapsed=0:00:02.08    \nframe=   45 fps= 17 q=27.0 size=    1280KiB time=00:00:01.79 bitrate=5852.7kbits/s speed=0.686x elapsed=0:00:02.61    \nframe=   57 fps= 18 q=27.0 size=    1792KiB time=00:00:02.29 bitrate=6406.0kbits/s speed=0.73x elapsed=0:00:03.13    \nframe=   73 fps= 20 q=26.0 size=    2304KiB time=00:00:02.95 bitrate=6380.2kbits/s speed=0.81x elapsed=0:00:03.65    \nframe=   89 fps= 21 q=26.0 size=    3072KiB time=00:00:03.50 bitrate=7190.3kbits/s speed=0.834x elapsed=0:00:04.19    \nframe=  101 fps= 21 q=26.0 size=    3328KiB time=00:00:04.12 bitrate=6609.3kbits/s speed=0.871x elapsed=0:00:04.73    \nframe=  117 fps= 22 q=26.0 size=    4096KiB time=00:00:04.79 bitrate=7002.7kbits/s speed=0.91x elapsed=0:00:05.26    \nframe=  129 fps= 22 q=26.0 size=    4352KiB time=00:00:05.25 bitrate=6790.9kbits/s speed=0.902x elapsed=0:00:05.81    \nframe=  145 fps= 23 q=25.0 size=    5120KiB time=00:00:05.95 bitrate=7039.5kbits/s speed=0.939x elapsed=0:00:06.34    \nframe=  161 fps= 23 q=24.0 size=    5632KiB time=00:00:06.62 bitrate=6964.2kbits/s speed=0.964x elapsed=0:00:06.87    \nframe=  177 fps= 24 q=24.0 size=    6144KiB time=00:00:07.29 bitrate=6902.7kbits/s speed=0.986x elapsed=0:00:07.39    \nframe=  193 fps= 24 q=24.0 size=    6656KiB time=00:00:07.95 bitrate=6851.5kbits/s speed=   1x elapsed=0:00:07.92    \nframe=  209 fps= 25 q=23.0 size=    7168KiB time=00:00:08.54 bitrate=6874.6kbits/s speed=1.01x elapsed=0:00:08.45    \nframe=  221 fps= 25 q=24.0 size=    7424KiB time=00:00:09.12 bitrate=6665.0kbits/s speed=1.02x elapsed=0:00:08.98    \nframe=  237 fps= 25 q=-1.0 size=    7936KiB time=00:00:09.75 bitrate=6667.9kbits/s speed=1.02x elapsed=0:00:09.51    \n[mp4 @ 0000028ff4efa280] Starting second pass: moving the moov atom to the beginning of the file\n[out#0/mp4 @ 0000028ff4efa140] video:8268KiB audio:0KiB subtitle:0KiB other streams:0KiB global headers:0KiB muxing overhead: 0.045121%\nframe=  240 fps= 25 q=-1.0 Lsize=    8271KiB time=00:00:09.91 bitrate=6832.9kbits/s speed=1.04x elapsed=0:00:09.57    \n[libx264 @ 0000028ff4efc900] frame I:2     Avg QP:21.32  size:227034\n[libx264 @ 0000028ff4efc900] frame P:60    Avg QP:23.31  size: 74939\n[libx264 @ 0000028ff4efc900] frame B:178   Avg QP:26.02  size: 19747\n[libx264 @ 0000028ff4efc900] consecutive B-frames:  0.8%  0.0%  2.5% 96.7%\n[libx264 @ 0000028ff4efc900] mb I  I16..4:  5.2% 83.6% 11.2%\n[libx264 @ 0000028ff4efc900] mb P  I16..4:  0.1%  6.3%  0.3%  P16..4: 47.1% 27.3% 11.7%  0.0%  0.0%    skip: 7.2%\n[libx264 @ 0000028ff4efc900] mb B  I16..4:  0.0%  0.2%  0.0%  B16..8: 53.1%  8.3%  1.9%  direct: 4.2%  skip:32.3%  L0:42.6% L1:50.7% BI: 6.6%\n[libx264 @ 0000028ff4efc900] 8x8 transform intra:90.3% inter:78.5%\n[libx264 @ 0000028ff4efc900] direct mvs  spatial:94.4% temporal:5.6%\n[libx264 @ 0000028ff4efc900] coded y,uvDC,uvAC intra: 92.6% 90.2% 64.9% inter: 24.2% 24.8% 2.6%\n[libx264 @ 0000028ff4efc900] i16 v,h,dc,p: 24% 15% 13% 47%\n[libx264 @ 0000028ff4efc900] i8 v,h,dc,ddl,ddr,vr,hd,vl,hu:  8%  6%  2% 11% 17% 15% 16% 12% 13%\n[libx264 @ 0000028ff4efc900] i4 v,h,dc,ddl,ddr,vr,hd,vl,hu:  7%  4%  1% 11% 17% 15% 17% 13% 15%\n[libx264 @ 0000028ff4efc900] i8c dc,h,v,p: 48% 22% 14% 16%\n[libx264 @ 0000028ff4efc900] Weighted P-Frames: Y:0.0% UV:0.0%\n[libx264 @ 0000028ff4efc900] ref P L0: 56.2% 15.7% 16.3%  6.4%  5.4%\n[libx264 @ 0000028ff4efc900] ref B L0: 87.5%  8.6%  3.0%  0.9%\n[libx264 @ 0000028ff4efc900] ref B L1: 96.8%  3.2%\n[libx264 @ 0000028ff4efc900] kb/s:6772.28\n",
  "seconds": 9.705749273300171,
  "probe_out": {}
}